# xmcd
#
# Track frame offsets:
#	150
#	15935
#	31581
#	52882
#	66735
#	88354
#	106840
#	123069
#	143238
#	163076
#
# Disc length: 2385 seconds
#
# Revision: 1
# Processed by: cddbd v1.5.2PL0 Copyright (c) Steve Scherf et al.
# Submitted via: audiograbber 1.83.01
#
DISCID=7b094f0a
DTITLE=Kelly Willard - Homesick For Heaven
DYEAR=1995
DGENRE=Christian Country
TTITLE0=Like The Wind
TTITLE1=Nothin' Last Forever (but His Love)
TTITLE2=It Takes Love
TTITLE3=This Love Of Mine
TTITLE4=I'll Come To The River
TTITLE5=Homesick For Heaven
TTITLE6=Before The Prairie Met The Plow
TTITLE7=A River Of Love Flowes
TTITLE8=If Time Could Really Tell
TTITLE9=You Never Know
EXTD=
EXTT0=
EXTT1=
EXTT2=
EXTT3=
EXTT4=
EXTT5=
EXTT6=
EXTT7=
EXTT8=
EXTT9=
PLAYORDER=
